<mxfile host="Electron" modified="2023-10-21T02:11:41.128Z" agent="Mozilla/5.0 (Windows NT 10.0; Win64; x64) AppleWebKit/537.36 (KHTML, like Gecko) draw.io/22.0.0 Chrome/114.0.5735.289 Electron/25.8.3 Safari/537.36" etag="PJChwijFQCgH1usqpyOe" version="22.0.0" type="device">
  <diagram id="tcJoGeuxI8kGtLN16Q2e" name="Página-1">
    <mxGraphModel dx="5518" dy="-1948" grid="0" gridSize="10" guides="1" tooltips="1" connect="1" arrows="1" fold="1" page="1" pageScale="1" pageWidth="1169" pageHeight="827" math="0" shadow="0">
      <root>
        <mxCell id="0" />
        <mxCell id="1" parent="0" />
        <mxCell id="5C8yg-AnYcex8QezCsbs-18" value="" style="group" vertex="1" connectable="0" parent="1">
          <mxGeometry x="-1112.5" y="4319" width="1062.5" height="1003" as="geometry" />
        </mxCell>
        <mxCell id="5C8yg-AnYcex8QezCsbs-1" value="" style="group" vertex="1" connectable="0" parent="5C8yg-AnYcex8QezCsbs-18">
          <mxGeometry x="89.5" width="973" height="941.4449999999997" as="geometry" />
        </mxCell>
        <mxCell id="5C8yg-AnYcex8QezCsbs-2" value="" style="shape=flexArrow;endArrow=classic;html=1;rounded=0;exitX=0.426;exitY=0.909;exitDx=0;exitDy=0;exitPerimeter=0;fillColor=#0D0D0D;" edge="1" parent="5C8yg-AnYcex8QezCsbs-1">
          <mxGeometry width="50" height="50" relative="1" as="geometry">
            <mxPoint x="4.997820000000047" y="941.4449999999997" as="sourcePoint" />
            <mxPoint x="5.4099999999998545" as="targetPoint" />
          </mxGeometry>
        </mxCell>
        <mxCell id="5C8yg-AnYcex8QezCsbs-3" value="" style="shape=flexArrow;endArrow=classic;html=1;rounded=0;fillColor=#0D0D0D;" edge="1" parent="5C8yg-AnYcex8QezCsbs-1">
          <mxGeometry width="50" height="50" relative="1" as="geometry">
            <mxPoint y="937" as="sourcePoint" />
            <mxPoint x="973" y="932" as="targetPoint" />
          </mxGeometry>
        </mxCell>
        <mxCell id="5C8yg-AnYcex8QezCsbs-4" value="" style="rounded=0;whiteSpace=wrap;html=1;strokeColor=none;fillColor=#D9ADFF;container=0;" vertex="1" parent="5C8yg-AnYcex8QezCsbs-1">
          <mxGeometry x="217" y="42" width="701" height="863" as="geometry" />
        </mxCell>
        <mxCell id="5C8yg-AnYcex8QezCsbs-5" value="" style="rounded=0;whiteSpace=wrap;html=1;strokeColor=none;fillColor=#C4C4C4;container=0;" vertex="1" parent="5C8yg-AnYcex8QezCsbs-1">
          <mxGeometry x="42" y="42" width="175" height="863" as="geometry" />
        </mxCell>
        <mxCell id="5C8yg-AnYcex8QezCsbs-6" value="" style="rounded=0;whiteSpace=wrap;html=1;strokeColor=none;fillColor=#BDD9C3;container=0;" vertex="1" parent="5C8yg-AnYcex8QezCsbs-1">
          <mxGeometry x="496" y="42" width="422" height="649" as="geometry" />
        </mxCell>
        <mxCell id="5C8yg-AnYcex8QezCsbs-7" value="" style="endArrow=none;dashed=1;html=1;rounded=0;strokeWidth=4;strokeColor=#828282;" edge="1" parent="5C8yg-AnYcex8QezCsbs-1">
          <mxGeometry width="50" height="50" relative="1" as="geometry">
            <mxPoint x="496" y="936" as="sourcePoint" />
            <mxPoint x="496" y="3" as="targetPoint" />
          </mxGeometry>
        </mxCell>
        <mxCell id="5C8yg-AnYcex8QezCsbs-8" value="&lt;font style=&quot;font-size: 80px;&quot;&gt;principal&lt;/font&gt;" style="text;html=1;strokeColor=none;fillColor=none;align=center;verticalAlign=middle;whiteSpace=wrap;rounded=0;fontColor=#FFFFFF;fontFamily=Verdana;container=0;" vertex="1" parent="5C8yg-AnYcex8QezCsbs-1">
          <mxGeometry x="526" y="310" width="362" height="113" as="geometry" />
        </mxCell>
        <mxCell id="5C8yg-AnYcex8QezCsbs-9" value="&lt;font style=&quot;font-size: 80px;&quot;&gt;suporte&lt;/font&gt;" style="text;html=1;strokeColor=none;fillColor=none;align=center;verticalAlign=middle;whiteSpace=wrap;rounded=0;fontColor=#FFFFFF;fontFamily=Verdana;container=0;" vertex="1" parent="5C8yg-AnYcex8QezCsbs-1">
          <mxGeometry x="318" y="795" width="362" height="113" as="geometry" />
        </mxCell>
        <mxCell id="5C8yg-AnYcex8QezCsbs-10" value="&lt;span style=&quot;font-size: 80px;&quot;&gt;genérico&amp;nbsp;&lt;/span&gt;" style="text;html=1;strokeColor=none;fillColor=none;align=center;verticalAlign=middle;whiteSpace=wrap;rounded=0;fontColor=#FFFFFF;fontFamily=Verdana;horizontal=0;container=0;" vertex="1" parent="5C8yg-AnYcex8QezCsbs-1">
          <mxGeometry x="73" y="501" width="113" height="352" as="geometry" />
        </mxCell>
        <mxCell id="5C8yg-AnYcex8QezCsbs-11" value="Pedido" style="ellipse;whiteSpace=wrap;html=1;fontSize=28;fillColor=#F2C12E;rounded=0;strokeWidth=3;fontStyle=1;container=0;" vertex="1" parent="5C8yg-AnYcex8QezCsbs-1">
          <mxGeometry x="645" y="153" width="160" height="160" as="geometry" />
        </mxCell>
        <mxCell id="5C8yg-AnYcex8QezCsbs-12" value="Satisfação&amp;nbsp;" style="ellipse;whiteSpace=wrap;html=1;fontSize=28;fillColor=#F2C12E;rounded=0;strokeWidth=3;fontStyle=1;container=0;" vertex="1" parent="5C8yg-AnYcex8QezCsbs-1">
          <mxGeometry x="209.5" y="610" width="160" height="160" as="geometry" />
        </mxCell>
        <mxCell id="5C8yg-AnYcex8QezCsbs-13" value="" style="endArrow=none;dashed=1;html=1;rounded=0;strokeWidth=4;strokeColor=#828282;" edge="1" parent="5C8yg-AnYcex8QezCsbs-1">
          <mxGeometry width="50" height="50" relative="1" as="geometry">
            <mxPoint x="969" y="457" as="sourcePoint" />
            <mxPoint x="16" y="457" as="targetPoint" />
          </mxGeometry>
        </mxCell>
        <mxCell id="5C8yg-AnYcex8QezCsbs-14" value="Cliente" style="ellipse;whiteSpace=wrap;html=1;fontSize=28;fillColor=#F2C12E;rounded=0;strokeWidth=3;fontStyle=1;container=0;" vertex="1" parent="5C8yg-AnYcex8QezCsbs-1">
          <mxGeometry x="278" y="374" width="160" height="160" as="geometry" />
        </mxCell>
        <mxCell id="5C8yg-AnYcex8QezCsbs-15" value="Pagamento" style="ellipse;whiteSpace=wrap;html=1;fontSize=28;fillColor=#F2C12E;rounded=0;strokeWidth=3;fontStyle=1;container=0;" vertex="1" parent="5C8yg-AnYcex8QezCsbs-1">
          <mxGeometry x="49.5" y="343" width="160" height="160" as="geometry" />
        </mxCell>
        <mxCell id="5C8yg-AnYcex8QezCsbs-16" value="Diferecial de Negócio&amp;nbsp;" style="text;html=1;strokeColor=none;fillColor=none;align=center;verticalAlign=middle;whiteSpace=wrap;rounded=0;fontStyle=1;fontSize=44;container=0;" vertex="1" parent="5C8yg-AnYcex8QezCsbs-18">
          <mxGeometry x="357.5" y="955" width="482" height="48" as="geometry" />
        </mxCell>
        <mxCell id="5C8yg-AnYcex8QezCsbs-17" value="Complexidade do modelo" style="text;html=1;strokeColor=none;fillColor=none;align=center;verticalAlign=middle;whiteSpace=wrap;rounded=0;fontStyle=1;fontSize=44;rotation=-90;container=0;" vertex="1" parent="5C8yg-AnYcex8QezCsbs-18">
          <mxGeometry x="-253.5" y="444" width="555" height="48" as="geometry" />
        </mxCell>
        <mxCell id="5C8yg-AnYcex8QezCsbs-37" value="Cliente" style="ellipse;whiteSpace=wrap;html=1;fontSize=53;fillColor=#F2C12E;rounded=0;strokeWidth=3;fontStyle=1;" vertex="1" parent="1">
          <mxGeometry x="-2281" y="4351" width="280" height="287" as="geometry" />
        </mxCell>
        <mxCell id="5C8yg-AnYcex8QezCsbs-38" value="Pedido" style="ellipse;whiteSpace=wrap;html=1;fontSize=53;fillColor=#F2C12E;rounded=0;strokeWidth=3;fontStyle=1;" vertex="1" parent="1">
          <mxGeometry x="-1904" y="4701" width="280" height="287" as="geometry" />
        </mxCell>
        <mxCell id="5C8yg-AnYcex8QezCsbs-39" style="edgeStyle=orthogonalEdgeStyle;rounded=0;orthogonalLoop=1;jettySize=auto;html=1;" edge="1" parent="1" source="5C8yg-AnYcex8QezCsbs-41" target="5C8yg-AnYcex8QezCsbs-38">
          <mxGeometry relative="1" as="geometry" />
        </mxCell>
        <mxCell id="5C8yg-AnYcex8QezCsbs-40" value="Conformista" style="edgeLabel;html=1;align=center;verticalAlign=middle;resizable=0;points=[];fontSize=29;fontStyle=1" vertex="1" connectable="0" parent="5C8yg-AnYcex8QezCsbs-39">
          <mxGeometry x="0.2849" y="2" relative="1" as="geometry">
            <mxPoint as="offset" />
          </mxGeometry>
        </mxCell>
        <mxCell id="5C8yg-AnYcex8QezCsbs-41" value="Pagamento" style="ellipse;whiteSpace=wrap;html=1;fontSize=48;fillColor=#F2C12E;rounded=0;strokeWidth=3;fontStyle=1;" vertex="1" parent="1">
          <mxGeometry x="-1904" y="5404" width="280" height="287" as="geometry" />
        </mxCell>
        <mxCell id="5C8yg-AnYcex8QezCsbs-42" value="Satisfação" style="ellipse;whiteSpace=wrap;html=1;fontSize=50;fillColor=#F2C12E;rounded=0;strokeWidth=3;fontStyle=1;" vertex="1" parent="1">
          <mxGeometry x="-1558" y="4351" width="280" height="287" as="geometry" />
        </mxCell>
        <mxCell id="5C8yg-AnYcex8QezCsbs-43" value="U" style="text;html=1;strokeColor=none;fillColor=none;align=center;verticalAlign=middle;whiteSpace=wrap;rounded=0;labelBackgroundColor=default;labelBorderColor=default;fontSize=55;fontStyle=0;spacingLeft=0;spacingTop=0;" vertex="1" parent="1">
          <mxGeometry x="-1892" y="4988" width="56" height="82" as="geometry" />
        </mxCell>
        <mxCell id="5C8yg-AnYcex8QezCsbs-44" value="D" style="text;html=1;strokeColor=none;fillColor=none;align=center;verticalAlign=middle;whiteSpace=wrap;rounded=0;labelBackgroundColor=default;labelBorderColor=default;fontSize=55;fontStyle=0;spacingLeft=0;spacingTop=0;" vertex="1" parent="1">
          <mxGeometry x="-1888.5" y="5317" width="49" height="80" as="geometry" />
        </mxCell>
        <mxCell id="5C8yg-AnYcex8QezCsbs-45" value="ACL" style="rounded=0;whiteSpace=wrap;html=1;fillColor=#d5e8d4;strokeColor=#0D0D0D;fontStyle=1;fontSize=30;rotation=0;strokeWidth=3;" vertex="1" parent="1">
          <mxGeometry x="-1825" y="4992" width="122" height="83" as="geometry" />
        </mxCell>
        <mxCell id="5C8yg-AnYcex8QezCsbs-46" value="OHS" style="rounded=0;whiteSpace=wrap;html=1;fillColor=#d5e8d4;strokeColor=#0D0D0D;fontStyle=1;fontSize=30;rotation=0;strokeWidth=3;" vertex="1" parent="1">
          <mxGeometry x="-1827" y="5317" width="122" height="83" as="geometry" />
        </mxCell>
      </root>
    </mxGraphModel>
  </diagram>
</mxfile>
